<?xml version="1.0" encoding="utf-8"?>
<svg xmlns="http://www.w3.org/2000/svg" xmlns:xlink="http://www.w3.org/1999/xlink" style="margin: auto; background: none; display: block; shape-rendering: auto;" width="800px" height="800px" viewBox="0 0 100 100" preserveAspectRatio="xMidYMid">
<g transform="rotate(0 50 50)">
  <rect x="48.5" y="39.5" rx="0.48" ry="0.48" width="3" height="3" fill="#3e3ab6">
    <animate attributeName="opacity" values="1;0" keyTimes="0;1" dur="1.1627906976744184s" begin="-1.13953488372093s" repeatCount="indefinite"></animate>
  </rect>
</g><g transform="rotate(7.2 50 50)">
  <rect x="48.5" y="39.5" rx="0.48" ry="0.48" width="3" height="3" fill="#3e3ab6">
    <animate attributeName="opacity" values="1;0" keyTimes="0;1" dur="1.1627906976744184s" begin="-1.1162790697674416s" repeatCount="indefinite"></animate>
  </rect>
</g><g transform="rotate(14.4 50 50)">
  <rect x="48.5" y="39.5" rx="0.48" ry="0.48" width="3" height="3" fill="#3e3ab6">
    <animate attributeName="opacity" values="1;0" keyTimes="0;1" dur="1.1627906976744184s" begin="-1.0930232558139532s" repeatCount="indefinite"></animate>
  </rect>
</g><g transform="rotate(21.6 50 50)">
  <rect x="48.5" y="39.5" rx="0.48" ry="0.48" width="3" height="3" fill="#3e3ab6">
    <animate attributeName="opacity" values="1;0" keyTimes="0;1" dur="1.1627906976744184s" begin="-1.069767441860465s" repeatCount="indefinite"></animate>
  </rect>
</g><g transform="rotate(28.8 50 50)">
  <rect x="48.5" y="39.5" rx="0.48" ry="0.48" width="3" height="3" fill="#3e3ab6">
    <animate attributeName="opacity" values="1;0" keyTimes="0;1" dur="1.1627906976744184s" begin="-1.0465116279069766s" repeatCount="indefinite"></animate>
  </rect>
</g><g transform="rotate(36 50 50)">
  <rect x="48.5" y="39.5" rx="0.48" ry="0.48" width="3" height="3" fill="#3e3ab6">
    <animate attributeName="opacity" values="1;0" keyTimes="0;1" dur="1.1627906976744184s" begin="-1.0232558139534882s" repeatCount="indefinite"></animate>
  </rect>
</g><g transform="rotate(43.2 50 50)">
  <rect x="48.5" y="39.5" rx="0.48" ry="0.48" width="3" height="3" fill="#3e3ab6">
    <animate attributeName="opacity" values="1;0" keyTimes="0;1" dur="1.1627906976744184s" begin="-0.9999999999999999s" repeatCount="indefinite"></animate>
  </rect>
</g><g transform="rotate(50.4 50 50)">
  <rect x="48.5" y="39.5" rx="0.48" ry="0.48" width="3" height="3" fill="#3e3ab6">
    <animate attributeName="opacity" values="1;0" keyTimes="0;1" dur="1.1627906976744184s" begin="-0.9767441860465115s" repeatCount="indefinite"></animate>
  </rect>
</g><g transform="rotate(57.6 50 50)">
  <rect x="48.5" y="39.5" rx="0.48" ry="0.48" width="3" height="3" fill="#3e3ab6">
    <animate attributeName="opacity" values="1;0" keyTimes="0;1" dur="1.1627906976744184s" begin="-0.9534883720930231s" repeatCount="indefinite"></animate>
  </rect>
</g><g transform="rotate(64.8 50 50)">
  <rect x="48.5" y="39.5" rx="0.48" ry="0.48" width="3" height="3" fill="#3e3ab6">
    <animate attributeName="opacity" values="1;0" keyTimes="0;1" dur="1.1627906976744184s" begin="-0.9302325581395348s" repeatCount="indefinite"></animate>
  </rect>
</g><g transform="rotate(72 50 50)">
  <rect x="48.5" y="39.5" rx="0.48" ry="0.48" width="3" height="3" fill="#3e3ab6">
    <animate attributeName="opacity" values="1;0" keyTimes="0;1" dur="1.1627906976744184s" begin="-0.9069767441860463s" repeatCount="indefinite"></animate>
  </rect>
</g><g transform="rotate(79.2 50 50)">
  <rect x="48.5" y="39.5" rx="0.48" ry="0.48" width="3" height="3" fill="#3e3ab6">
    <animate attributeName="opacity" values="1;0" keyTimes="0;1" dur="1.1627906976744184s" begin="-0.883720930232558s" repeatCount="indefinite"></animate>
  </rect>
</g><g transform="rotate(86.4 50 50)">
  <rect x="48.5" y="39.5" rx="0.48" ry="0.48" width="3" height="3" fill="#3e3ab6">
    <animate attributeName="opacity" values="1;0" keyTimes="0;1" dur="1.1627906976744184s" begin="-0.8604651162790696s" repeatCount="indefinite"></animate>
  </rect>
</g><g transform="rotate(93.6 50 50)">
  <rect x="48.5" y="39.5" rx="0.48" ry="0.48" width="3" height="3" fill="#3e3ab6">
    <animate attributeName="opacity" values="1;0" keyTimes="0;1" dur="1.1627906976744184s" begin="-0.8372093023255812s" repeatCount="indefinite"></animate>
  </rect>
</g><g transform="rotate(100.8 50 50)">
  <rect x="48.5" y="39.5" rx="0.48" ry="0.48" width="3" height="3" fill="#3e3ab6">
    <animate attributeName="opacity" values="1;0" keyTimes="0;1" dur="1.1627906976744184s" begin="-0.8139534883720929s" repeatCount="indefinite"></animate>
  </rect>
</g><g transform="rotate(108 50 50)">
  <rect x="48.5" y="39.5" rx="0.48" ry="0.48" width="3" height="3" fill="#3e3ab6">
    <animate attributeName="opacity" values="1;0" keyTimes="0;1" dur="1.1627906976744184s" begin="-0.7906976744186045s" repeatCount="indefinite"></animate>
  </rect>
</g><g transform="rotate(115.2 50 50)">
  <rect x="48.5" y="39.5" rx="0.48" ry="0.48" width="3" height="3" fill="#3e3ab6">
    <animate attributeName="opacity" values="1;0" keyTimes="0;1" dur="1.1627906976744184s" begin="-0.7674418604651162s" repeatCount="indefinite"></animate>
  </rect>
</g><g transform="rotate(122.4 50 50)">
  <rect x="48.5" y="39.5" rx="0.48" ry="0.48" width="3" height="3" fill="#3e3ab6">
    <animate attributeName="opacity" values="1;0" keyTimes="0;1" dur="1.1627906976744184s" begin="-0.7441860465116278s" repeatCount="indefinite"></animate>
  </rect>
</g><g transform="rotate(129.6 50 50)">
  <rect x="48.5" y="39.5" rx="0.48" ry="0.48" width="3" height="3" fill="#3e3ab6">
    <animate attributeName="opacity" values="1;0" keyTimes="0;1" dur="1.1627906976744184s" begin="-0.7209302325581394s" repeatCount="indefinite"></animate>
  </rect>
</g><g transform="rotate(136.8 50 50)">
  <rect x="48.5" y="39.5" rx="0.48" ry="0.48" width="3" height="3" fill="#3e3ab6">
    <animate attributeName="opacity" values="1;0" keyTimes="0;1" dur="1.1627906976744184s" begin="-0.6976744186046511s" repeatCount="indefinite"></animate>
  </rect>
</g><g transform="rotate(144 50 50)">
  <rect x="48.5" y="39.5" rx="0.48" ry="0.48" width="3" height="3" fill="#3e3ab6">
    <animate attributeName="opacity" values="1;0" keyTimes="0;1" dur="1.1627906976744184s" begin="-0.6744186046511627s" repeatCount="indefinite"></animate>
  </rect>
</g><g transform="rotate(151.2 50 50)">
  <rect x="48.5" y="39.5" rx="0.48" ry="0.48" width="3" height="3" fill="#3e3ab6">
    <animate attributeName="opacity" values="1;0" keyTimes="0;1" dur="1.1627906976744184s" begin="-0.6511627906976744s" repeatCount="indefinite"></animate>
  </rect>
</g><g transform="rotate(158.4 50 50)">
  <rect x="48.5" y="39.5" rx="0.48" ry="0.48" width="3" height="3" fill="#3e3ab6">
    <animate attributeName="opacity" values="1;0" keyTimes="0;1" dur="1.1627906976744184s" begin="-0.6279069767441859s" repeatCount="indefinite"></animate>
  </rect>
</g><g transform="rotate(165.6 50 50)">
  <rect x="48.5" y="39.5" rx="0.48" ry="0.48" width="3" height="3" fill="#3e3ab6">
    <animate attributeName="opacity" values="1;0" keyTimes="0;1" dur="1.1627906976744184s" begin="-0.6046511627906975s" repeatCount="indefinite"></animate>
  </rect>
</g><g transform="rotate(172.8 50 50)">
  <rect x="48.5" y="39.5" rx="0.48" ry="0.48" width="3" height="3" fill="#3e3ab6">
    <animate attributeName="opacity" values="1;0" keyTimes="0;1" dur="1.1627906976744184s" begin="-0.5813953488372092s" repeatCount="indefinite"></animate>
  </rect>
</g><g transform="rotate(180 50 50)">
  <rect x="48.5" y="39.5" rx="0.48" ry="0.48" width="3" height="3" fill="#3e3ab6">
    <animate attributeName="opacity" values="1;0" keyTimes="0;1" dur="1.1627906976744184s" begin="-0.5581395348837208s" repeatCount="indefinite"></animate>
  </rect>
</g><g transform="rotate(187.2 50 50)">
  <rect x="48.5" y="39.5" rx="0.48" ry="0.48" width="3" height="3" fill="#3e3ab6">
    <animate attributeName="opacity" values="1;0" keyTimes="0;1" dur="1.1627906976744184s" begin="-0.5348837209302325s" repeatCount="indefinite"></animate>
  </rect>
</g><g transform="rotate(194.4 50 50)">
  <rect x="48.5" y="39.5" rx="0.48" ry="0.48" width="3" height="3" fill="#3e3ab6">
    <animate attributeName="opacity" values="1;0" keyTimes="0;1" dur="1.1627906976744184s" begin="-0.5116279069767441s" repeatCount="indefinite"></animate>
  </rect>
</g><g transform="rotate(201.6 50 50)">
  <rect x="48.5" y="39.5" rx="0.48" ry="0.48" width="3" height="3" fill="#3e3ab6">
    <animate attributeName="opacity" values="1;0" keyTimes="0;1" dur="1.1627906976744184s" begin="-0.48837209302325574s" repeatCount="indefinite"></animate>
  </rect>
</g><g transform="rotate(208.8 50 50)">
  <rect x="48.5" y="39.5" rx="0.48" ry="0.48" width="3" height="3" fill="#3e3ab6">
    <animate attributeName="opacity" values="1;0" keyTimes="0;1" dur="1.1627906976744184s" begin="-0.4651162790697674s" repeatCount="indefinite"></animate>
  </rect>
</g><g transform="rotate(216 50 50)">
  <rect x="48.5" y="39.5" rx="0.48" ry="0.48" width="3" height="3" fill="#3e3ab6">
    <animate attributeName="opacity" values="1;0" keyTimes="0;1" dur="1.1627906976744184s" begin="-0.441860465116279s" repeatCount="indefinite"></animate>
  </rect>
</g><g transform="rotate(223.2 50 50)">
  <rect x="48.5" y="39.5" rx="0.48" ry="0.48" width="3" height="3" fill="#3e3ab6">
    <animate attributeName="opacity" values="1;0" keyTimes="0;1" dur="1.1627906976744184s" begin="-0.4186046511627906s" repeatCount="indefinite"></animate>
  </rect>
</g><g transform="rotate(230.4 50 50)">
  <rect x="48.5" y="39.5" rx="0.48" ry="0.48" width="3" height="3" fill="#3e3ab6">
    <animate attributeName="opacity" values="1;0" keyTimes="0;1" dur="1.1627906976744184s" begin="-0.39534883720930225s" repeatCount="indefinite"></animate>
  </rect>
</g><g transform="rotate(237.6 50 50)">
  <rect x="48.5" y="39.5" rx="0.48" ry="0.48" width="3" height="3" fill="#3e3ab6">
    <animate attributeName="opacity" values="1;0" keyTimes="0;1" dur="1.1627906976744184s" begin="-0.3720930232558139s" repeatCount="indefinite"></animate>
  </rect>
</g><g transform="rotate(244.8 50 50)">
  <rect x="48.5" y="39.5" rx="0.48" ry="0.48" width="3" height="3" fill="#3e3ab6">
    <animate attributeName="opacity" values="1;0" keyTimes="0;1" dur="1.1627906976744184s" begin="-0.34883720930232553s" repeatCount="indefinite"></animate>
  </rect>
</g><g transform="rotate(252 50 50)">
  <rect x="48.5" y="39.5" rx="0.48" ry="0.48" width="3" height="3" fill="#3e3ab6">
    <animate attributeName="opacity" values="1;0" keyTimes="0;1" dur="1.1627906976744184s" begin="-0.3255813953488372s" repeatCount="indefinite"></animate>
  </rect>
</g><g transform="rotate(259.2 50 50)">
  <rect x="48.5" y="39.5" rx="0.48" ry="0.48" width="3" height="3" fill="#3e3ab6">
    <animate attributeName="opacity" values="1;0" keyTimes="0;1" dur="1.1627906976744184s" begin="-0.30232558139534876s" repeatCount="indefinite"></animate>
  </rect>
</g><g transform="rotate(266.4 50 50)">
  <rect x="48.5" y="39.5" rx="0.48" ry="0.48" width="3" height="3" fill="#3e3ab6">
    <animate attributeName="opacity" values="1;0" keyTimes="0;1" dur="1.1627906976744184s" begin="-0.2790697674418604s" repeatCount="indefinite"></animate>
  </rect>
</g><g transform="rotate(273.6 50 50)">
  <rect x="48.5" y="39.5" rx="0.48" ry="0.48" width="3" height="3" fill="#3e3ab6">
    <animate attributeName="opacity" values="1;0" keyTimes="0;1" dur="1.1627906976744184s" begin="-0.25581395348837205s" repeatCount="indefinite"></animate>
  </rect>
</g><g transform="rotate(280.8 50 50)">
  <rect x="48.5" y="39.5" rx="0.48" ry="0.48" width="3" height="3" fill="#3e3ab6">
    <animate attributeName="opacity" values="1;0" keyTimes="0;1" dur="1.1627906976744184s" begin="-0.2325581395348837s" repeatCount="indefinite"></animate>
  </rect>
</g><g transform="rotate(288 50 50)">
  <rect x="48.5" y="39.5" rx="0.48" ry="0.48" width="3" height="3" fill="#3e3ab6">
    <animate attributeName="opacity" values="1;0" keyTimes="0;1" dur="1.1627906976744184s" begin="-0.2093023255813953s" repeatCount="indefinite"></animate>
  </rect>
</g><g transform="rotate(295.2 50 50)">
  <rect x="48.5" y="39.5" rx="0.48" ry="0.48" width="3" height="3" fill="#3e3ab6">
    <animate attributeName="opacity" values="1;0" keyTimes="0;1" dur="1.1627906976744184s" begin="-0.18604651162790695s" repeatCount="indefinite"></animate>
  </rect>
</g><g transform="rotate(302.4 50 50)">
  <rect x="48.5" y="39.5" rx="0.48" ry="0.48" width="3" height="3" fill="#3e3ab6">
    <animate attributeName="opacity" values="1;0" keyTimes="0;1" dur="1.1627906976744184s" begin="-0.1627906976744186s" repeatCount="indefinite"></animate>
  </rect>
</g><g transform="rotate(309.6 50 50)">
  <rect x="48.5" y="39.5" rx="0.48" ry="0.48" width="3" height="3" fill="#3e3ab6">
    <animate attributeName="opacity" values="1;0" keyTimes="0;1" dur="1.1627906976744184s" begin="-0.1395348837209302s" repeatCount="indefinite"></animate>
  </rect>
</g><g transform="rotate(316.8 50 50)">
  <rect x="48.5" y="39.5" rx="0.48" ry="0.48" width="3" height="3" fill="#3e3ab6">
    <animate attributeName="opacity" values="1;0" keyTimes="0;1" dur="1.1627906976744184s" begin="-0.11627906976744184s" repeatCount="indefinite"></animate>
  </rect>
</g><g transform="rotate(324 50 50)">
  <rect x="48.5" y="39.5" rx="0.48" ry="0.48" width="3" height="3" fill="#3e3ab6">
    <animate attributeName="opacity" values="1;0" keyTimes="0;1" dur="1.1627906976744184s" begin="-0.09302325581395347s" repeatCount="indefinite"></animate>
  </rect>
</g><g transform="rotate(331.2 50 50)">
  <rect x="48.5" y="39.5" rx="0.48" ry="0.48" width="3" height="3" fill="#3e3ab6">
    <animate attributeName="opacity" values="1;0" keyTimes="0;1" dur="1.1627906976744184s" begin="-0.0697674418604651s" repeatCount="indefinite"></animate>
  </rect>
</g><g transform="rotate(338.4 50 50)">
  <rect x="48.5" y="39.5" rx="0.48" ry="0.48" width="3" height="3" fill="#3e3ab6">
    <animate attributeName="opacity" values="1;0" keyTimes="0;1" dur="1.1627906976744184s" begin="-0.04651162790697674s" repeatCount="indefinite"></animate>
  </rect>
</g><g transform="rotate(345.6 50 50)">
  <rect x="48.5" y="39.5" rx="0.48" ry="0.48" width="3" height="3" fill="#3e3ab6">
    <animate attributeName="opacity" values="1;0" keyTimes="0;1" dur="1.1627906976744184s" begin="-0.02325581395348837s" repeatCount="indefinite"></animate>
  </rect>
</g><g transform="rotate(352.8 50 50)">
  <rect x="48.5" y="39.5" rx="0.48" ry="0.48" width="3" height="3" fill="#3e3ab6">
    <animate attributeName="opacity" values="1;0" keyTimes="0;1" dur="1.1627906976744184s" begin="0s" repeatCount="indefinite"></animate>
  </rect>
</g>
<!-- [ldio] generated by https://loading.io/ --></svg>